<svg id="SvgjsSvg1001" width="288" height="288" xmlns="http://www.w3.org/2000/svg" version="1.1" xmlns:xlink="http://www.w3.org/1999/xlink" xmlns:svgjs="http://svgjs.com/svgjs"><defs id="SvgjsDefs1002"></defs><g id="SvgjsG1008"><svg xmlns="http://www.w3.org/2000/svg" data-name="Layer 1" viewBox="0 0 24 24" width="288" height="288"><path fill="#5296cc" d="M23.49,6.7,23.15,10,23,11l-.17,1.7a2,2,0,0,1-2,1.8H3.15a2,2,0,0,1-2-1.8L1,11l-.1-1L.51,6.7a2,2,0,0,1,2-2.2H21.46A2,2,0,0,1,23.49,6.7Z" class="colore0e1ef svgShape"></path><path fill="#ffbf66" d="M7.83 20H7.74a.5.5 0 0 1-.41-.58l.35-2a.5.5 0 1 1 1 .17l-.35 2A.5.5 0 0 1 7.83 20zM16.17 20a.5.5 0 0 1-.49-.41l-.35-2a.5.5 0 1 1 1-.17l.35 2a.5.5 0 0 1-.41.58zM12 20a.5.5 0 0 1-.5-.5v-2a.5.5 0 0 1 1 0v2A.5.5 0 0 1 12 20zM3.66 19.94a.5.5 0 0 1-.47-.67l.68-1.88a.5.5 0 1 1 .94.34l-.68 1.88A.5.5 0 0 1 3.66 19.94zM20.34 19.94a.5.5 0 0 1-.47-.33l-.68-1.88a.5.5 0 1 1 .94-.34l.68 1.88a.5.5 0 0 1-.47.67zM3.9 14.5h0a1.67 1.67 0 0 1 1.64-2H18.46a1.67 1.67 0 0 1 1.64 2h0M13.5 9h-3a.5.5 0 0 1 0-1h3a.5.5 0 0 1 0 1z" class="color54bbe8 svgShape"></path><path fill="#525156" d="M23.15,10,23,11H1l-.1-1h22.3Z" class="color57565c svgShape"></path></svg></g></svg>